<svg xmlns="http://www.w3.org/2000/svg" viewBox="0 0 240 240" width="240" height="240" shape-rendering="geometricPrecision">
  <defs>
    <!-- ═══ GRADIENTS ═══ -->
    <linearGradient id="bolt" x1="0%" y1="0%" x2="0%" y2="100%">
      <stop offset="0%" stop-color="#00ff9f">
        <animate attributeName="stop-color" values="#00ff9f;#00ff41;#00cc33;#00ff9f" dur="0.2s" repeatCount="indefinite"/>
      </stop>
      <stop offset="100%" stop-color="#00aa28">
        <animate attributeName="stop-color" values="#00aa28;#00881e;#00aa28" dur="0.2s" repeatCount="indefinite"/>
      </stop>
    </linearGradient>

    <radialGradient id="phosphorGlow" cx="50%" cy="50%" r="50%">
      <stop offset="0%" stop-color="#00ff41" stop-opacity="0.2"/>
      <stop offset="60%" stop-color="#00ff41" stop-opacity="0.04"/>
      <stop offset="100%" stop-color="#00ff41" stop-opacity="0"/>
    </radialGradient>

    <radialGradient id="vignette" cx="50%" cy="50%" r="55%">
      <stop offset="55%" stop-color="#000" stop-opacity="0"/>
      <stop offset="100%" stop-color="#000" stop-opacity="0.6"/>
    </radialGradient>

    <linearGradient id="bezelG" x1="0%" y1="0%" x2="100%" y2="100%">
      <stop offset="0%" stop-color="#333"/>
      <stop offset="50%" stop-color="#1a1a1a"/>
      <stop offset="100%" stop-color="#2a2a2a"/>
    </linearGradient>

    <!-- ═══ FILTERS ═══ -->
    <filter id="fPhos" x="-20%" y="-20%" width="140%" height="140%">
      <feGaussianBlur stdDeviation="0.5"/>
      <feMerge>
        <feMergeNode/>
        <feMergeNode in="SourceGraphic"/>
      </feMerge>
    </filter>

    <filter id="fGlow" x="-50%" y="-50%" width="200%" height="200%">
      <feGaussianBlur stdDeviation="1.5" result="b"/>
      <feMerge>
        <feMergeNode in="b"/>
        <feMergeNode in="SourceGraphic"/>
      </feMerge>
    </filter>

    <filter id="fB3" x="-50%" y="-50%" width="200%" height="200%">
      <feGaussianBlur stdDeviation="3"/>
    </filter>

    <!-- ═══ CLIP ═══ -->
    <clipPath id="scrClip">
      <rect x="28" y="22" width="184" height="156" rx="8"/>
    </clipPath>
  </defs>

  <!-- Background -->
  <rect width="240" height="240" rx="16" fill="#0a0a0a"/>

  <!-- Dot grid background -->
  <g fill="#00ff41" opacity="0.02">
    <circle cx="20" cy="20" r="0.7"/><circle cx="40" cy="20" r="0.7"/><circle cx="60" cy="20" r="0.7"/><circle cx="80" cy="20" r="0.7"/><circle cx="100" cy="20" r="0.7"/><circle cx="120" cy="20" r="0.7"/><circle cx="140" cy="20" r="0.7"/><circle cx="160" cy="20" r="0.7"/><circle cx="180" cy="20" r="0.7"/><circle cx="200" cy="20" r="0.7"/><circle cx="220" cy="20" r="0.7"/>
    <circle cx="20" cy="40" r="0.7"/><circle cx="40" cy="40" r="0.7"/><circle cx="60" cy="40" r="0.7"/><circle cx="80" cy="40" r="0.7"/><circle cx="100" cy="40" r="0.7"/><circle cx="120" cy="40" r="0.7"/><circle cx="140" cy="40" r="0.7"/><circle cx="160" cy="40" r="0.7"/><circle cx="180" cy="40" r="0.7"/><circle cx="200" cy="40" r="0.7"/><circle cx="220" cy="40" r="0.7"/>
    <circle cx="20" cy="60" r="0.7"/><circle cx="40" cy="60" r="0.7"/><circle cx="60" cy="60" r="0.7"/><circle cx="80" cy="60" r="0.7"/><circle cx="100" cy="60" r="0.7"/><circle cx="120" cy="60" r="0.7"/><circle cx="140" cy="60" r="0.7"/><circle cx="160" cy="60" r="0.7"/><circle cx="180" cy="60" r="0.7"/><circle cx="200" cy="60" r="0.7"/><circle cx="220" cy="60" r="0.7"/>
    <circle cx="20" cy="80" r="0.7"/><circle cx="40" cy="80" r="0.7"/><circle cx="60" cy="80" r="0.7"/><circle cx="80" cy="80" r="0.7"/><circle cx="100" cy="80" r="0.7"/><circle cx="120" cy="80" r="0.7"/><circle cx="140" cy="80" r="0.7"/><circle cx="160" cy="80" r="0.7"/><circle cx="180" cy="80" r="0.7"/><circle cx="200" cy="80" r="0.7"/><circle cx="220" cy="80" r="0.7"/>
    <circle cx="20" cy="100" r="0.7"/><circle cx="40" cy="100" r="0.7"/><circle cx="60" cy="100" r="0.7"/><circle cx="80" cy="100" r="0.7"/><circle cx="100" cy="100" r="0.7"/><circle cx="120" cy="100" r="0.7"/><circle cx="140" cy="100" r="0.7"/><circle cx="160" cy="100" r="0.7"/><circle cx="180" cy="100" r="0.7"/><circle cx="200" cy="100" r="0.7"/><circle cx="220" cy="100" r="0.7"/>
    <circle cx="20" cy="120" r="0.7"/><circle cx="40" cy="120" r="0.7"/><circle cx="60" cy="120" r="0.7"/><circle cx="80" cy="120" r="0.7"/><circle cx="100" cy="120" r="0.7"/><circle cx="120" cy="120" r="0.7"/><circle cx="140" cy="120" r="0.7"/><circle cx="160" cy="120" r="0.7"/><circle cx="180" cy="120" r="0.7"/><circle cx="200" cy="120" r="0.7"/><circle cx="220" cy="120" r="0.7"/>
    <circle cx="20" cy="140" r="0.7"/><circle cx="40" cy="140" r="0.7"/><circle cx="60" cy="140" r="0.7"/><circle cx="80" cy="140" r="0.7"/><circle cx="100" cy="140" r="0.7"/><circle cx="120" cy="140" r="0.7"/><circle cx="140" cy="140" r="0.7"/><circle cx="160" cy="140" r="0.7"/><circle cx="180" cy="140" r="0.7"/><circle cx="200" cy="140" r="0.7"/><circle cx="220" cy="140" r="0.7"/>
    <circle cx="20" cy="160" r="0.7"/><circle cx="40" cy="160" r="0.7"/><circle cx="60" cy="160" r="0.7"/><circle cx="80" cy="160" r="0.7"/><circle cx="100" cy="160" r="0.7"/><circle cx="120" cy="160" r="0.7"/><circle cx="140" cy="160" r="0.7"/><circle cx="160" cy="160" r="0.7"/><circle cx="180" cy="160" r="0.7"/><circle cx="200" cy="160" r="0.7"/><circle cx="220" cy="160" r="0.7"/>
    <circle cx="20" cy="180" r="0.7"/><circle cx="40" cy="180" r="0.7"/><circle cx="60" cy="180" r="0.7"/><circle cx="80" cy="180" r="0.7"/><circle cx="100" cy="180" r="0.7"/><circle cx="120" cy="180" r="0.7"/><circle cx="140" cy="180" r="0.7"/><circle cx="160" cy="180" r="0.7"/><circle cx="180" cy="180" r="0.7"/><circle cx="200" cy="180" r="0.7"/><circle cx="220" cy="180" r="0.7"/>
    <circle cx="20" cy="200" r="0.7"/><circle cx="40" cy="200" r="0.7"/><circle cx="60" cy="200" r="0.7"/><circle cx="80" cy="200" r="0.7"/><circle cx="100" cy="200" r="0.7"/><circle cx="120" cy="200" r="0.7"/><circle cx="140" cy="200" r="0.7"/><circle cx="160" cy="200" r="0.7"/><circle cx="180" cy="200" r="0.7"/><circle cx="200" cy="200" r="0.7"/><circle cx="220" cy="200" r="0.7"/>
    <circle cx="20" cy="220" r="0.7"/><circle cx="40" cy="220" r="0.7"/><circle cx="60" cy="220" r="0.7"/><circle cx="80" cy="220" r="0.7"/><circle cx="100" cy="220" r="0.7"/><circle cx="120" cy="220" r="0.7"/><circle cx="140" cy="220" r="0.7"/><circle cx="160" cy="220" r="0.7"/><circle cx="180" cy="220" r="0.7"/><circle cx="200" cy="220" r="0.7"/><circle cx="220" cy="220" r="0.7"/>
  </g>

  <!-- ═══ CRT MONITOR BEZEL ═══ -->
  <rect x="14" y="10" width="212" height="180" rx="16" fill="url(#bezelG)" stroke="#3a3a3a" stroke-width="0.5"/>
  <rect x="24" y="18" width="192" height="164" rx="10" fill="#020305"/>
  <rect x="28" y="22" width="184" height="156" rx="8" fill="#000a00"/>
  <rect x="28" y="22" width="184" height="156" rx="8" fill="url(#phosphorGlow)"/>

  <!-- ═══ MATRIX RAIN (background) ═══ -->
  <g clip-path="url(#scrClip)" font-family="monospace" font-size="6" fill="#00ff41">
    <g opacity="0.08">
      <text x="34" y="32">1</text><text x="34" y="40">0</text><text x="34" y="48">1</text><text x="34" y="56">1</text>
      <text x="34" y="64">0</text><text x="34" y="72">1</text><text x="34" y="80">0</text><text x="34" y="88">1</text>
      <text x="34" y="96">0</text><text x="34" y="104">1</text><text x="34" y="112">0</text><text x="34" y="120">1</text>
      <text x="34" y="128">0</text><text x="34" y="136">1</text><text x="34" y="144">0</text><text x="34" y="152">1</text>
      <text x="34" y="160">0</text><text x="34" y="168">1</text>
    </g>
    <g opacity="0.06">
      <text x="44" y="36">0</text><text x="44" y="44">1</text><text x="44" y="52">0</text><text x="44" y="60">1</text>
      <text x="44" y="68">0</text><text x="44" y="76">1</text><text x="44" y="84">0</text><text x="44" y="92">1</text>
      <text x="44" y="100">0</text><text x="44" y="108">1</text><text x="44" y="116">0</text><text x="44" y="124">1</text>
      <text x="44" y="132">0</text><text x="44" y="140">1</text><text x="44" y="148">0</text><text x="44" y="156">1</text>
    </g>
    <g opacity="0.05">
      <text x="194" y="34">1</text><text x="194" y="42">0</text><text x="194" y="50">1</text>
      <text x="194" y="58">0</text><text x="194" y="66">1</text><text x="194" y="74">0</text>
      <text x="194" y="82">1</text><text x="194" y="90">0</text><text x="194" y="98">1</text>
      <text x="194" y="106">0</text><text x="194" y="114">1</text><text x="194" y="122">0</text>
      <text x="194" y="130">1</text><text x="194" y="138">0</text><text x="194" y="146">1</text>
      <text x="194" y="154">0</text><text x="194" y="162">1</text>
    </g>
    <g opacity="0.04">
      <text x="204" y="30">0</text><text x="204" y="38">1</text><text x="204" y="46">0</text>
      <text x="204" y="54">1</text><text x="204" y="62">0</text><text x="204" y="70">1</text>
      <text x="204" y="78">0</text><text x="204" y="86">1</text><text x="204" y="94">0</text>
      <text x="204" y="102">1</text><text x="204" y="110">0</text><text x="204" y="118">1</text>
    </g>
  </g>

  <!-- ═══ LIGHTNING BOLT (center, pixel-art style) ═══ -->
  <g clip-path="url(#scrClip)" filter="url(#fGlow)">
    <!-- Bolt shape — blocky pixel art lightning -->
    <polygon points="128,48 112,48 120,72 104,72 124,104 116,84 132,84" fill="url(#bolt)" stroke="#00ff41" stroke-width="0.5">
      <animate attributeName="opacity" values="0.7;1;0.7;1;0.85" dur="0.15s" repeatCount="indefinite"/>
    </polygon>
    <!-- Inner bright core -->
    <polygon points="124,52 116,52 121,68 113,68 122,88 118,78 128,78" fill="#aaffaa" opacity="0.6">
      <animate attributeName="opacity" values="0.4;0.9;0.4" dur="0.1s" repeatCount="indefinite"/>
    </polygon>
  </g>

  <!-- ═══ TERMINAL TEXT ═══ -->
  <g clip-path="url(#scrClip)" font-family="'JetBrains Mono','Fira Code',monospace" font-size="7" fill="#00ff41" filter="url(#fPhos)">
    <text x="34" y="124" opacity="0.7">
      <animate attributeName="opacity" values="0;0.7;0.7" dur="2s" repeatCount="indefinite"/>
      &gt; agentpay.init()
    </text>
    <text x="34" y="136" opacity="0.6">
      <animate attributeName="opacity" values="0;0;0.6;0.6" dur="2s" repeatCount="indefinite"/>
      &gt; chain: base (8453)
    </text>
    <text x="34" y="148" opacity="0.6">
      <animate attributeName="opacity" values="0;0;0;0.6;0.6" dur="2s" repeatCount="indefinite"/>
      &gt; fetch /api → 402
    </text>
    <text x="34" y="160" opacity="0.5">
      <animate attributeName="opacity" values="0;0;0;0;0.5;0.5" dur="2s" repeatCount="indefinite"/>
      &gt; sign EIP-712 → 200 ✅
    </text>
  </g>

  <!-- ═══ BLINKING CURSOR ═══ -->
  <g clip-path="url(#scrClip)">
    <rect x="34" y="164" width="7" height="8" fill="url(#bolt)" filter="url(#fPhos)">
      <animate attributeName="opacity" values="1;1;0;0;1" dur="1s" repeatCount="indefinite"/>
    </rect>
  </g>

  <!-- ═══ SCANLINES ═══ -->
  <g clip-path="url(#scrClip)" opacity="0.1">
    <rect x="28" y="24" width="184" height="1" fill="#000"/>
    <rect x="28" y="26" width="184" height="1" fill="#000"/>
    <rect x="28" y="28" width="184" height="1" fill="#000"/>
    <rect x="28" y="30" width="184" height="1" fill="#000"/>
    <rect x="28" y="32" width="184" height="1" fill="#000"/>
    <rect x="28" y="34" width="184" height="1" fill="#000"/>
    <rect x="28" y="36" width="184" height="1" fill="#000"/>
    <rect x="28" y="38" width="184" height="1" fill="#000"/>
    <rect x="28" y="40" width="184" height="1" fill="#000"/>
    <rect x="28" y="42" width="184" height="1" fill="#000"/>
    <rect x="28" y="44" width="184" height="1" fill="#000"/>
    <rect x="28" y="46" width="184" height="1" fill="#000"/>
    <rect x="28" y="48" width="184" height="1" fill="#000"/>
    <rect x="28" y="50" width="184" height="1" fill="#000"/>
    <rect x="28" y="52" width="184" height="1" fill="#000"/>
    <rect x="28" y="54" width="184" height="1" fill="#000"/>
    <rect x="28" y="56" width="184" height="1" fill="#000"/>
    <rect x="28" y="58" width="184" height="1" fill="#000"/>
    <rect x="28" y="60" width="184" height="1" fill="#000"/>
    <rect x="28" y="62" width="184" height="1" fill="#000"/>
    <rect x="28" y="64" width="184" height="1" fill="#000"/>
    <rect x="28" y="66" width="184" height="1" fill="#000"/>
    <rect x="28" y="68" width="184" height="1" fill="#000"/>
    <rect x="28" y="70" width="184" height="1" fill="#000"/>
    <rect x="28" y="72" width="184" height="1" fill="#000"/>
    <rect x="28" y="74" width="184" height="1" fill="#000"/>
    <rect x="28" y="76" width="184" height="1" fill="#000"/>
    <rect x="28" y="78" width="184" height="1" fill="#000"/>
    <rect x="28" y="80" width="184" height="1" fill="#000"/>
    <rect x="28" y="82" width="184" height="1" fill="#000"/>
    <rect x="28" y="84" width="184" height="1" fill="#000"/>
    <rect x="28" y="86" width="184" height="1" fill="#000"/>
    <rect x="28" y="88" width="184" height="1" fill="#000"/>
    <rect x="28" y="90" width="184" height="1" fill="#000"/>
    <rect x="28" y="92" width="184" height="1" fill="#000"/>
    <rect x="28" y="94" width="184" height="1" fill="#000"/>
    <rect x="28" y="96" width="184" height="1" fill="#000"/>
    <rect x="28" y="98" width="184" height="1" fill="#000"/>
    <rect x="28" y="100" width="184" height="1" fill="#000"/>
    <rect x="28" y="102" width="184" height="1" fill="#000"/>
    <rect x="28" y="104" width="184" height="1" fill="#000"/>
    <rect x="28" y="106" width="184" height="1" fill="#000"/>
    <rect x="28" y="108" width="184" height="1" fill="#000"/>
    <rect x="28" y="110" width="184" height="1" fill="#000"/>
    <rect x="28" y="112" width="184" height="1" fill="#000"/>
    <rect x="28" y="114" width="184" height="1" fill="#000"/>
    <rect x="28" y="116" width="184" height="1" fill="#000"/>
    <rect x="28" y="118" width="184" height="1" fill="#000"/>
    <rect x="28" y="120" width="184" height="1" fill="#000"/>
    <rect x="28" y="122" width="184" height="1" fill="#000"/>
    <rect x="28" y="124" width="184" height="1" fill="#000"/>
    <rect x="28" y="126" width="184" height="1" fill="#000"/>
    <rect x="28" y="128" width="184" height="1" fill="#000"/>
    <rect x="28" y="130" width="184" height="1" fill="#000"/>
    <rect x="28" y="132" width="184" height="1" fill="#000"/>
    <rect x="28" y="134" width="184" height="1" fill="#000"/>
    <rect x="28" y="136" width="184" height="1" fill="#000"/>
    <rect x="28" y="138" width="184" height="1" fill="#000"/>
    <rect x="28" y="140" width="184" height="1" fill="#000"/>
    <rect x="28" y="142" width="184" height="1" fill="#000"/>
    <rect x="28" y="144" width="184" height="1" fill="#000"/>
    <rect x="28" y="146" width="184" height="1" fill="#000"/>
    <rect x="28" y="148" width="184" height="1" fill="#000"/>
    <rect x="28" y="150" width="184" height="1" fill="#000"/>
    <rect x="28" y="152" width="184" height="1" fill="#000"/>
    <rect x="28" y="154" width="184" height="1" fill="#000"/>
    <rect x="28" y="156" width="184" height="1" fill="#000"/>
    <rect x="28" y="158" width="184" height="1" fill="#000"/>
    <rect x="28" y="160" width="184" height="1" fill="#000"/>
    <rect x="28" y="162" width="184" height="1" fill="#000"/>
    <rect x="28" y="164" width="184" height="1" fill="#000"/>
    <rect x="28" y="166" width="184" height="1" fill="#000"/>
    <rect x="28" y="168" width="184" height="1" fill="#000"/>
    <rect x="28" y="170" width="184" height="1" fill="#000"/>
    <rect x="28" y="172" width="184" height="1" fill="#000"/>
    <rect x="28" y="174" width="184" height="1" fill="#000"/>
  </g>

  <!-- ═══ MOVING SCAN LINE ═══ -->
  <g clip-path="url(#scrClip)">
    <rect x="28" y="22" width="184" height="3" fill="#00ff41" opacity="0.06">
      <animate attributeName="y" from="22" to="173" dur="5s" repeatCount="indefinite"/>
    </rect>
  </g>

  <!-- ═══ VIGNETTE ═══ -->
  <rect x="28" y="22" width="184" height="156" rx="8" fill="url(#vignette)" pointer-events="none"/>

  <!-- ═══ FLICKER ═══ -->
  <rect x="28" y="22" width="184" height="156" rx="8" fill="#00ff41" opacity="0" pointer-events="none">
    <animate attributeName="opacity" values="0;0;0;0.015;0;0;0;0.02;0;0;0;0;0.01;0;0;0;0;0;0.025;0;0" dur="0.15s" repeatCount="indefinite"/>
  </rect>

  <!-- ═══ GLITCH RGB ═══ -->
  <g clip-path="url(#scrClip)" opacity="0.12">
    <rect x="28" y="78" width="184" height="2" fill="#ff0000">
      <animate attributeName="x" values="28;26;28;29;28" dur="0.25s" repeatCount="indefinite"/>
      <animate attributeName="opacity" values="0;0.3;0;0;0.2;0" dur="3s" repeatCount="indefinite"/>
    </rect>
    <rect x="28" y="78" width="184" height="2" fill="#0000ff">
      <animate attributeName="x" values="28;30;28;27;28" dur="0.25s" repeatCount="indefinite"/>
      <animate attributeName="opacity" values="0;0;0.2;0;0;0.3;0" dur="3s" begin="0.7s" repeatCount="indefinite"/>
    </rect>
  </g>

  <!-- ═══ MONITOR STAND ═══ -->
  <rect x="104" y="190" width="32" height="6" fill="url(#bezelG)"/>
  <rect x="92" y="196" width="56" height="5" rx="2.5" fill="url(#bezelG)"/>

  <!-- ═══ POWER LED ═══ -->
  <circle cx="206" cy="184" r="2" fill="#00ff41" filter="url(#fPhos)">
    <animate attributeName="opacity" values="1;0.5;1" dur="2s" repeatCount="indefinite"/>
  </circle>
  <circle cx="210" cy="184" r="1.5" fill="#ff4040">
    <animate attributeName="opacity" values="0.3;0.6;0.3" dur="3s" repeatCount="indefinite"/>
  </circle>

  <!-- ═══ KEYBOARD ═══ -->
  <g>
    <rect x="48" y="204" width="144" height="26" rx="3" fill="#1a1a1a" stroke="#3a3a3a" stroke-width="0.4"/>
    <g fill="#2a2a2a" stroke="#3a3a3a" stroke-width="0.2">
      <rect x="52" y="207" width="6" height="4" rx="0.5"/><rect x="59" y="207" width="6" height="4" rx="0.5"/>
      <rect x="66" y="207" width="6" height="4" rx="0.5"/><rect x="73" y="207" width="6" height="4" rx="0.5"/>
      <rect x="80" y="207" width="6" height="4" rx="0.5"/><rect x="87" y="207" width="6" height="4" rx="0.5"/>
      <rect x="94" y="207" width="6" height="4" rx="0.5"/><rect x="101" y="207" width="6" height="4" rx="0.5"/>
      <rect x="108" y="207" width="6" height="4" rx="0.5"/><rect x="115" y="207" width="6" height="4" rx="0.5"/>
      <rect x="122" y="207" width="6" height="4" rx="0.5"/><rect x="129" y="207" width="6" height="4" rx="0.5"/>
      <rect x="136" y="207" width="6" height="4" rx="0.5"/><rect x="143" y="207" width="6" height="4" rx="0.5"/>
      <rect x="150" y="207" width="6" height="4" rx="0.5"/><rect x="157" y="207" width="6" height="4" rx="0.5"/>
      <rect x="164" y="207" width="6" height="4" rx="0.5"/><rect x="171" y="207" width="6" height="4" rx="0.5"/>
      <rect x="178" y="207" width="10" height="4" rx="0.5"/>
      <rect x="52" y="213" width="6" height="4" rx="0.5"/><rect x="59" y="213" width="6" height="4" rx="0.5"/>
      <rect x="66" y="213" width="6" height="4" rx="0.5"/><rect x="73" y="213" width="6" height="4" rx="0.5"/>
      <rect x="80" y="213" width="6" height="4" rx="0.5"/><rect x="87" y="213" width="6" height="4" rx="0.5"/>
      <rect x="94" y="213" width="6" height="4" rx="0.5"/><rect x="101" y="213" width="6" height="4" rx="0.5"/>
      <rect x="108" y="213" width="6" height="4" rx="0.5"/><rect x="115" y="213" width="6" height="4" rx="0.5"/>
      <rect x="122" y="213" width="6" height="4" rx="0.5"/><rect x="129" y="213" width="6" height="4" rx="0.5"/>
      <rect x="136" y="213" width="6" height="4" rx="0.5"/><rect x="143" y="213" width="6" height="4" rx="0.5"/>
      <rect x="150" y="213" width="6" height="4" rx="0.5"/><rect x="157" y="213" width="18" height="4" rx="0.5"/>
      <rect x="176" y="213" width="12" height="4" rx="0.5"/>
      <rect x="52" y="219" width="8" height="4" rx="0.5"/><rect x="61" y="219" width="8" height="4" rx="0.5"/>
      <rect x="70" y="219" width="56" height="4" rx="0.5"/>
      <rect x="128" y="219" width="8" height="4" rx="0.5"/><rect x="137" y="219" width="8" height="4" rx="0.5"/>
      <rect x="146" y="219" width="8" height="4" rx="0.5"/><rect x="155" y="219" width="8" height="4" rx="0.5"/>
      <rect x="164" y="219" width="24" height="4" rx="0.5"/>
    </g>
    <!-- Active key glow -->
    <rect x="94" y="213" width="6" height="4" rx="0.5" fill="url(#bolt)" filter="url(#fPhos)" opacity="0.5">
      <animate attributeName="opacity" values="0.2;0.6;0.2" dur="1.5s" repeatCount="indefinite"/>
    </rect>
    <!-- Spacebar glow -->
    <rect x="70" y="219" width="56" height="4" rx="0.5" fill="url(#bolt)" filter="url(#fPhos)" opacity="0.25">
      <animate attributeName="opacity" values="0.1;0.35;0.1" dur="2s" repeatCount="indefinite"/>
    </rect>
  </g>

  <!-- ═══ DESK SURFACE ═══ -->
  <rect x="0" y="230" width="240" height="10" fill="#0f0f0f" opacity="0.6"/>
</svg>