<svg xmlns="http://www.w3.org/2000/svg" viewBox="0 0 240 240" width="240" height="240" shape-rendering="geometricPrecision">
  <defs>
    <!-- ═══ PHOSPHOR PALETTE ═══ -->
    <linearGradient id="phosA" x1="0%" y1="0%" x2="100%" y2="100%">
      <stop offset="0%" stop-color="#00ff41">
        <animate attributeName="stop-color" values="#00ff41;#00cc33;#00ff41;#33ff66;#00ff41" dur="0.12s" repeatCount="indefinite"/>
      </stop>
      <stop offset="50%" stop-color="#00dd37">
        <animate attributeName="stop-color" values="#00dd37;#00ff41;#00cc33;#00dd37" dur="0.12s" repeatCount="indefinite"/>
      </stop>
      <stop offset="100%" stop-color="#00aa28">
        <animate attributeName="stop-color" values="#00aa28;#00cc33;#00aa28" dur="0.12s" repeatCount="indefinite"/>
      </stop>
    </linearGradient>

    <linearGradient id="phosB" x1="100%" y1="0%" x2="0%" y2="100%">
      <stop offset="0%" stop-color="#00ff41">
        <animate attributeName="stop-color" values="#00ff41;#00cc33;#33ff66;#00ff41" dur="0.15s" repeatCount="indefinite"/>
      </stop>
      <stop offset="100%" stop-color="#00881e">
        <animate attributeName="stop-color" values="#00881e;#00aa28;#00881e" dur="0.15s" repeatCount="indefinite"/>
      </stop>
    </linearGradient>

    <radialGradient id="scrGlow" cx="40%" cy="35%" r="70%">
      <stop offset="0%" stop-color="#00ff41" stop-opacity="0.15"/>
      <stop offset="50%" stop-color="#00ff41" stop-opacity="0.03"/>
      <stop offset="100%" stop-color="#00ff41" stop-opacity="0"/>
    </radialGradient>

    <radialGradient id="scrVig" cx="50%" cy="50%" r="60%">
      <stop offset="50%" stop-color="#000" stop-opacity="0"/>
      <stop offset="100%" stop-color="#000" stop-opacity="0.65"/>
    </radialGradient>

    <linearGradient id="bezel" x1="0%" y1="0%" x2="100%" y2="100%">
      <stop offset="0%" stop-color="#3a3a3e"/>
      <stop offset="30%" stop-color="#2a2a2e"/>
      <stop offset="60%" stop-color="#1a1a1e"/>
      <stop offset="100%" stop-color="#222226"/>
    </linearGradient>

    <linearGradient id="bezelTop" x1="0%" y1="0%" x2="0%" y2="100%">
      <stop offset="0%" stop-color="#4a4a52"/>
      <stop offset="100%" stop-color="#1a1a1e"/>
    </linearGradient>

    <linearGradient id="keyG" x1="0%" y1="0%" x2="0%" y2="100%">
      <stop offset="0%" stop-color="#3a3a3e"/>
      <stop offset="100%" stop-color="#1a1a1e"/>
    </linearGradient>

    <radialGradient id="ledG" cx="50%" cy="40%" r="50%">
      <stop offset="0%" stop-color="#00ff41"/>
      <stop offset="60%" stop-color="#00cc33"/>
      <stop offset="100%" stop-color="#006611"/>
    </radialGradient>

    <radialGradient id="ledR" cx="50%" cy="40%" r="50%">
      <stop offset="0%" stop-color="#ff4040"/>
      <stop offset="60%" stop-color="#cc1010"/>
      <stop offset="100%" stop-color="#660000"/>
    </radialGradient>

    <linearGradient id="crtCurve" x1="0%" y1="0%" x2="0%" y2="100%">
      <stop offset="0%" stop-color="#ffffff" stop-opacity="0.06"/>
      <stop offset="50%" stop-color="#ffffff" stop-opacity="0"/>
      <stop offset="100%" stop-color="#ffffff" stop-opacity="0.02"/>
    </linearGradient>

    <!-- ═══ FILTERS ═══ -->
    <filter id="fPhos" x="-20%" y="-20%" width="140%" height="140%">
      <feGaussianBlur stdDeviation="0.4"/>
      <feMerge>
        <feMergeNode/>
        <feMergeNode in="SourceGraphic"/>
      </feMerge>
    </filter>

    <filter id="fGlow" x="-50%" y="-50%" width="200%" height="200%">
      <feGaussianBlur stdDeviation="1" result="b1"/>
      <feGaussianBlur stdDeviation="3" in="SourceGraphic" result="b2"/>
      <feMerge>
        <feMergeNode in="b2"/>
        <feMergeNode in="b1"/>
        <feMergeNode in="SourceGraphic"/>
      </feMerge>
    </filter>

    <filter id="fB4" x="-50%" y="-50%" width="200%" height="200%">
      <feGaussianBlur stdDeviation="4"/>
    </filter>

    <!-- ═══ CLIPS ═══ -->
    <clipPath id="scr">
      <path d="M 22 20 Q 22 18 24 18 L 216 18 Q 218 18 218 20 L 218 186 Q 218 188 216 188 L 24 188 Q 22 188 22 186 Z"/>
    </clipPath>
  </defs>

  <!-- ═══ BACKGROUND ═══ -->
  <rect width="240" height="240" rx="18" fill="#060608"/>

  <!-- Dot grid -->
  <g fill="#00ff41" opacity="0.015">
    <circle cx="20" cy="20" r="0.6"/><circle cx="40" cy="20" r="0.6"/><circle cx="60" cy="20" r="0.6"/><circle cx="80" cy="20" r="0.6"/><circle cx="100" cy="20" r="0.6"/><circle cx="120" cy="20" r="0.6"/><circle cx="140" cy="20" r="0.6"/><circle cx="160" cy="20" r="0.6"/><circle cx="180" cy="20" r="0.6"/><circle cx="200" cy="20" r="0.6"/><circle cx="220" cy="20" r="0.6"/>
    <circle cx="20" cy="40" r="0.6"/><circle cx="40" cy="40" r="0.6"/><circle cx="60" cy="40" r="0.6"/><circle cx="80" cy="40" r="0.6"/><circle cx="100" cy="40" r="0.6"/><circle cx="120" cy="40" r="0.6"/><circle cx="140" cy="40" r="0.6"/><circle cx="160" cy="40" r="0.6"/><circle cx="180" cy="40" r="0.6"/><circle cx="200" cy="40" r="0.6"/><circle cx="220" cy="40" r="0.6"/>
    <circle cx="20" cy="60" r="0.6"/><circle cx="40" cy="60" r="0.6"/><circle cx="60" cy="60" r="0.6"/><circle cx="80" cy="60" r="0.6"/><circle cx="100" cy="60" r="0.6"/><circle cx="120" cy="60" r="0.6"/><circle cx="140" cy="60" r="0.6"/><circle cx="160" cy="60" r="0.6"/><circle cx="180" cy="60" r="0.6"/><circle cx="200" cy="60" r="0.6"/><circle cx="220" cy="60" r="0.6"/>
    <circle cx="20" cy="80" r="0.6"/><circle cx="40" cy="80" r="0.6"/><circle cx="60" cy="80" r="0.6"/><circle cx="80" cy="80" r="0.6"/><circle cx="100" cy="80" r="0.6"/><circle cx="120" cy="80" r="0.6"/><circle cx="140" cy="80" r="0.6"/><circle cx="160" cy="80" r="0.6"/><circle cx="180" cy="80" r="0.6"/><circle cx="200" cy="80" r="0.6"/><circle cx="220" cy="80" r="0.6"/>
    <circle cx="20" cy="100" r="0.6"/><circle cx="40" cy="100" r="0.6"/><circle cx="60" cy="100" r="0.6"/><circle cx="80" cy="100" r="0.6"/><circle cx="100" cy="100" r="0.6"/><circle cx="120" cy="100" r="0.6"/><circle cx="140" cy="100" r="0.6"/><circle cx="160" cy="100" r="0.6"/><circle cx="180" cy="100" r="0.6"/><circle cx="200" cy="100" r="0.6"/><circle cx="220" cy="100" r="0.6"/>
    <circle cx="20" cy="120" r="0.6"/><circle cx="40" cy="120" r="0.6"/><circle cx="60" cy="120" r="0.6"/><circle cx="80" cy="120" r="0.6"/><circle cx="100" cy="120" r="0.6"/><circle cx="120" cy="120" r="0.6"/><circle cx="140" cy="120" r="0.6"/><circle cx="160" cy="120" r="0.6"/><circle cx="180" cy="120" r="0.6"/><circle cx="200" cy="120" r="0.6"/><circle cx="220" cy="120" r="0.6"/>
    <circle cx="20" cy="140" r="0.6"/><circle cx="40" cy="140" r="0.6"/><circle cx="60" cy="140" r="0.6"/><circle cx="80" cy="140" r="0.6"/><circle cx="100" cy="140" r="0.6"/><circle cx="120" cy="140" r="0.6"/><circle cx="140" cy="140" r="0.6"/><circle cx="160" cy="140" r="0.6"/><circle cx="180" cy="140" r="0.6"/><circle cx="200" cy="140" r="0.6"/><circle cx="220" cy="140" r="0.6"/>
    <circle cx="20" cy="160" r="0.6"/><circle cx="40" cy="160" r="0.6"/><circle cx="60" cy="160" r="0.6"/><circle cx="80" cy="160" r="0.6"/><circle cx="100" cy="160" r="0.6"/><circle cx="120" cy="160" r="0.6"/><circle cx="140" cy="160" r="0.6"/><circle cx="160" cy="160" r="0.6"/><circle cx="180" cy="160" r="0.6"/><circle cx="200" cy="160" r="0.6"/><circle cx="220" cy="160" r="0.6"/>
    <circle cx="20" cy="180" r="0.6"/><circle cx="40" cy="180" r="0.6"/><circle cx="60" cy="180" r="0.6"/><circle cx="80" cy="180" r="0.6"/><circle cx="100" cy="180" r="0.6"/><circle cx="120" cy="180" r="0.6"/><circle cx="140" cy="180" r="0.6"/><circle cx="160" cy="180" r="0.6"/><circle cx="180" cy="180" r="0.6"/><circle cx="200" cy="180" r="0.6"/><circle cx="220" cy="180" r="0.6"/>
    <circle cx="20" cy="200" r="0.6"/><circle cx="40" cy="200" r="0.6"/><circle cx="60" cy="200" r="0.6"/><circle cx="80" cy="200" r="0.6"/><circle cx="100" cy="200" r="0.6"/><circle cx="120" cy="200" r="0.6"/><circle cx="140" cy="200" r="0.6"/><circle cx="160" cy="200" r="0.6"/><circle cx="180" cy="200" r="0.6"/><circle cx="200" cy="200" r="0.6"/><circle cx="220" cy="200" r="0.6"/>
    <circle cx="20" cy="220" r="0.6"/><circle cx="40" cy="220" r="0.6"/><circle cx="60" cy="220" r="0.6"/><circle cx="80" cy="220" r="0.6"/><circle cx="100" cy="220" r="0.6"/><circle cx="120" cy="220" r="0.6"/><circle cx="140" cy="220" r="0.6"/><circle cx="160" cy="220" r="0.6"/><circle cx="180" cy="220" r="0.6"/><circle cx="200" cy="220" r="0.6"/><circle cx="220" cy="220" r="0.6"/>
  </g>

  <!-- ═══ CRT MONITOR BODY ═══ -->
  <!-- Outer bezel with slight curve -->
  <path d="M 12 14 Q 12 10 16 10 L 224 10 Q 228 10 228 14 L 228 190 Q 228 194 224 194 L 16 194 Q 12 194 12 190 Z" fill="url(#bezel)" stroke="#3a3a40" stroke-width="0.6"/>
  <!-- Top bezel highlight -->
  <path d="M 16 12 L 224 12 L 224 16 L 16 16 Z" fill="url(#bezelTop)" opacity="0.5"/>
  <!-- Screen recess -->
  <path d="M 20 18 Q 20 16 22 16 L 218 16 Q 220 16 220 18 L 220 188 Q 220 190 218 190 L 22 190 Q 20 190 20 188 Z" fill="#020308"/>
  <!-- CRT screen (phosphor green-black) -->
  <path d="M 22 20 Q 22 18 24 18 L 216 18 Q 218 18 218 20 L 218 186 Q 218 188 216 188 L 24 188 Q 22 188 22 186 Z" fill="#000800"/>
  <!-- Screen glow -->
  <path d="M 22 20 Q 22 18 24 18 L 216 18 Q 218 18 218 20 L 218 186 Q 218 188 216 188 L 24 188 Q 22 188 22 186 Z" fill="url(#scrGlow)"/>
  <!-- CRT glass reflection -->
  <path d="M 22 20 Q 22 18 24 18 L 216 18 Q 218 18 218 20 L 218 186 Q 218 188 216 188 L 24 188 Q 22 188 22 186 Z" fill="url(#crtCurve)"/>

  <!-- ═══ MATRIX RAIN ═══ -->
  <g clip-path="url(#scr)" font-family="'JetBrains Mono','Fira Code','Courier New',monospace" font-size="6" fill="#00ff41">
    <!-- Column 1 -->
    <g opacity="0.1">
      <text x="28" y="28">1</text><text x="28" y="36">0</text><text x="28" y="44">1</text>
      <text x="28" y="52">1</text><text x="28" y="60">0</text><text x="28" y="68">1</text>
      <text x="28" y="76">0</text><text x="28" y="84">1</text><text x="28" y="92">0</text>
      <text x="28" y="100">1</text><text x="28" y="108">0</text><text x="28" y="116">1</text>
      <text x="28" y="124">0</text><text x="28" y="132">1</text><text x="28" y="140">0</text>
      <text x="28" y="148">1</text><text x="28" y="156">0</text><text x="28" y="164">1</text>
      <text x="28" y="172">0</text><text x="28" y="180">1</text>
    </g>
    <!-- Column 2 -->
    <g opacity="0.07">
      <text x="38" y="32">0</text><text x="38" y="40">1</text><text x="38" y="48">0</text>
      <text x="38" y="56">1</text><text x="38" y="64">0</text><text x="38" y="72">1</text>
      <text x="38" y="80">0</text><text x="38" y="88">1</text><text x="38" y="96">0</text>
      <text x="38" y="104">1</text><text x="38" y="112">0</text><text x="38" y="120">1</text>
      <text x="38" y="128">0</text><text x="38" y="136">1</text><text x="38" y="144">0</text>
      <text x="38" y="152">1</text><text x="38" y="160">0</text>
    </g>
    <!-- Column right 1 -->
    <g opacity="0.09">
      <text x="200" y="26">1</text><text x="200" y="34">0</text><text x="200" y="42">1</text>
      <text x="200" y="50">0</text><text x="200" y="58">1</text><text x="200" y="66">0</text>
      <text x="200" y="74">1</text><text x="200" y="82">0</text><text x="200" y="90">1</text>
      <text x="200" y="98">0</text><text x="200" y="106">1</text><text x="200" y="114">0</text>
      <text x="200" y="122">1</text><text x="200" y="130">0</text><text x="200" y="138">1</text>
      <text x="200" y="146">0</text><text x="200" y="154">1</text><text x="200" y="162">0</text>
      <text x="200" y="170">1</text><text x="200" y="178">0</text>
    </g>
    <!-- Column right 2 -->
    <g opacity="0.06">
      <text x="210" y="30">0</text><text x="210" y="38">1</text><text x="210" y="46">0</text>
      <text x="210" y="54">1</text><text x="210" y="62">0</text><text x="210" y="70">1</text>
      <text x="210" y="78">0</text><text x="210" y="86">1</text><text x="210" y="94">0</text>
      <text x="210" y="102">1</text><text x="210" y="110">0</text><text x="210" y="118">1</text>
      <text x="210" y="126">0</text><text x="210" y="134">1</text><text x="210" y="142">0</text>
    </g>
    <animate attributeName="opacity" values="0.8;1;0.8" dur="3s" repeatCount="indefinite"/>
  </g>

  <!-- ═══ ASCII ART LOGO — "⚡" in block characters ═══ -->
  <g clip-path="url(#scr)" font-family="'JetBrains Mono','Fira Code','Courier New',monospace" font-size="10" fill="url(#phosA)" filter="url(#fPhos)" text-anchor="middle" font-weight="bold">
    <text x="120" y="60">
      <animate attributeName="opacity" values="0.8;1;0.8;1;0.9" dur="0.12s" repeatCount="indefinite"/>
      ⚡ Ap1ph3x
    </text>
  </g>

  <!-- ═══ TERMINAL BOOT SEQUENCE ═══ -->
  <g clip-path="url(#scr)" font-family="'JetBrains Mono','Fira Code','Courier New',monospace" font-size="6.5" fill="#00ff41" filter="url(#fPhos)">
    <text x="28" y="82" opacity="0.65">
      <animate attributeName="opacity" values="0;0.65;0.65" dur="3s" repeatCount="indefinite"/>
      &gt; init ap1ph3x v0.1.0
    </text>
    <text x="28" y="92" opacity="0.6">
      <animate attributeName="opacity" values="0;0;0.6;0.6" dur="3s" repeatCount="indefinite"/>
      &gt; wallet: 0xe987...1f9c [base]
    </text>
    <text x="28" y="102" opacity="0.6">
      <animate attributeName="opacity" values="0;0;0;0.6;0.6" dur="3s" repeatCount="indefinite"/>
      &gt; protocols: x402 ✅ mpp ✅
    </text>
    <text x="28" y="112" opacity="0.55">
      <animate attributeName="opacity" values="0;0;0;0;0.55;0.55" dur="3s" repeatCount="indefinite"/>
      &gt; chains: base|eth|tempo|poly|monad|bsc
    </text>
    <text x="28" y="122" opacity="0.55">
      <animate attributeName="opacity" values="0;0;0;0;0;0.55;0.55" dur="3s" repeatCount="indefinite"/>
      &gt; registry: 30+ APIs loaded
    </text>
    <text x="28" y="132" opacity="0.5">
      <animate attributeName="opacity" values="0;0;0;0;0;0;0.5;0.5" dur="3s" repeatCount="indefinite"/>
      &gt; caps: $1.00/call $10.00/day
    </text>
    <text x="28" y="142" opacity="0.5">
      <animate attributeName="opacity" values="0;0;0;0;0;0;0;0.5;0.5" dur="3s" repeatCount="indefinite"/>
      &gt; fetch /api/data → 402
    </text>
    <text x="28" y="152" opacity="0.45">
      <animate attributeName="opacity" values="0;0;0;0;0;0;0;0;0.45;0.45" dur="3s" repeatCount="indefinite"/>
      &gt; sign EIP-712 → 200 ✅
    </text>
    <text x="28" y="162" opacity="0.4">
      <animate attributeName="opacity" values="0;0;0;0;0;0;0;0;0;0.4;0.4" dur="3s" repeatCount="indefinite"/>
      &gt; paid: 0.01 USDC [settled]
    </text>
  </g>

  <!-- ═══ BLINKING CURSOR ═══ -->
  <g clip-path="url(#scr)">
    <rect x="28" y="166" width="7" height="8" fill="url(#phosA)" filter="url(#fPhos)">
      <animate attributeName="opacity" values="1;1;0;0;1" dur="0.8s" repeatCount="indefinite"/>
    </rect>
  </g>

  <!-- ═══ SCANLINES — proper CRT horizontal lines ═══ -->
  <g clip-path="url(#scr)" opacity="0.08">
    <rect x="22" y="20" width="196" height="1" fill="#000"/>
    <rect x="22" y="22" width="196" height="1" fill="#000"/>
    <rect x="22" y="24" width="196" height="1" fill="#000"/>
    <rect x="22" y="26" width="196" height="1" fill="#000"/>
    <rect x="22" y="28" width="196" height="1" fill="#000"/>
    <rect x="22" y="30" width="196" height="1" fill="#000"/>
    <rect x="22" y="32" width="196" height="1" fill="#000"/>
    <rect x="22" y="34" width="196" height="1" fill="#000"/>
    <rect x="22" y="36" width="196" height="1" fill="#000"/>
    <rect x="22" y="38" width="196" height="1" fill="#000"/>
    <rect x="22" y="40" width="196" height="1" fill="#000"/>
    <rect x="22" y="42" width="196" height="1" fill="#000"/>
    <rect x="22" y="44" width="196" height="1" fill="#000"/>
    <rect x="22" y="46" width="196" height="1" fill="#000"/>
    <rect x="22" y="48" width="196" height="1" fill="#000"/>
    <rect x="22" y="50" width="196" height="1" fill="#000"/>
    <rect x="22" y="52" width="196" height="1" fill="#000"/>
    <rect x="22" y="54" width="196" height="1" fill="#000"/>
    <rect x="22" y="56" width="196" height="1" fill="#000"/>
    <rect x="22" y="58" width="196" height="1" fill="#000"/>
    <rect x="22" y="60" width="196" height="1" fill="#000"/>
    <rect x="22" y="62" width="196" height="1" fill="#000"/>
    <rect x="22" y="64" width="196" height="1" fill="#000"/>
    <rect x="22" y="66" width="196" height="1" fill="#000"/>
    <rect x="22" y="68" width="196" height="1" fill="#000"/>
    <rect x="22" y="70" width="196" height="1" fill="#000"/>
    <rect x="22" y="72" width="196" height="1" fill="#000"/>
    <rect x="22" y="74" width="196" height="1" fill="#000"/>
    <rect x="22" y="76" width="196" height="1" fill="#000"/>
    <rect x="22" y="78" width="196" height="1" fill="#000"/>
    <rect x="22" y="80" width="196" height="1" fill="#000"/>
    <rect x="22" y="82" width="196" height="1" fill="#000"/>
    <rect x="22" y="84" width="196" height="1" fill="#000"/>
    <rect x="22" y="86" width="196" height="1" fill="#000"/>
    <rect x="22" y="88" width="196" height="1" fill="#000"/>
    <rect x="22" y="90" width="196" height="1" fill="#000"/>
    <rect x="22" y="92" width="196" height="1" fill="#000"/>
    <rect x="22" y="94" width="196" height="1" fill="#000"/>
    <rect x="22" y="96" width="196" height="1" fill="#000"/>
    <rect x="22" y="98" width="196" height="1" fill="#000"/>
    <rect x="22" y="100" width="196" height="1" fill="#000"/>
    <rect x="22" y="102" width="196" height="1" fill="#000"/>
    <rect x="22" y="104" width="196" height="1" fill="#000"/>
    <rect x="22" y="106" width="196" height="1" fill="#000"/>
    <rect x="22" y="108" width="196" height="1" fill="#000"/>
    <rect x="22" y="110" width="196" height="1" fill="#000"/>
    <rect x="22" y="112" width="196" height="1" fill="#000"/>
    <rect x="22" y="114" width="196" height="1" fill="#000"/>
    <rect x="22" y="116" width="196" height="1" fill="#000"/>
    <rect x="22" y="118" width="196" height="1" fill="#000"/>
    <rect x="22" y="120" width="196" height="1" fill="#000"/>
    <rect x="22" y="122" width="196" height="1" fill="#000"/>
    <rect x="22" y="124" width="196" height="1" fill="#000"/>
    <rect x="22" y="126" width="196" height="1" fill="#000"/>
    <rect x="22" y="128" width="196" height="1" fill="#000"/>
    <rect x="22" y="130" width="196" height="1" fill="#000"/>
    <rect x="22" y="132" width="196" height="1" fill="#000"/>
    <rect x="22" y="134" width="196" height="1" fill="#000"/>
    <rect x="22" y="136" width="196" height="1" fill="#000"/>
    <rect x="22" y="138" width="196" height="1" fill="#000"/>
    <rect x="22" y="140" width="196" height="1" fill="#000"/>
    <rect x="22" y="142" width="196" height="1" fill="#000"/>
    <rect x="22" y="144" width="196" height="1" fill="#000"/>
    <rect x="22" y="146" width="196" height="1" fill="#000"/>
    <rect x="22" y="148" width="196" height="1" fill="#000"/>
    <rect x="22" y="150" width="196" height="1" fill="#000"/>
    <rect x="22" y="152" width="196" height="1" fill="#000"/>
    <rect x="22" y="154" width="196" height="1" fill="#000"/>
    <rect x="22" y="156" width="196" height="1" fill="#000"/>
    <rect x="22" y="158" width="196" height="1" fill="#000"/>
    <rect x="22" y="160" width="196" height="1" fill="#000"/>
    <rect x="22" y="162" width="196" height="1" fill="#000"/>
    <rect x="22" y="164" width="196" height="1" fill="#000"/>
    <rect x="22" y="166" width="196" height="1" fill="#000"/>
    <rect x="22" y="168" width="196" height="1" fill="#000"/>
    <rect x="22" y="170" width="196" height="1" fill="#000"/>
    <rect x="22" y="172" width="196" height="1" fill="#000"/>
    <rect x="22" y="174" width="196" height="1" fill="#000"/>
    <rect x="22" y="176" width="196" height="1" fill="#000"/>
    <rect x="22" y="178" width="196" height="1" fill="#000"/>
    <rect x="22" y="180" width="196" height="1" fill="#000"/>
    <rect x="22" y="182" width="196" height="1" fill="#000"/>
    <rect x="22" y="184" width="196" height="1" fill="#000"/>
    <rect x="22" y="186" width="196" height="1" fill="#000"/>
  </g>

  <!-- ═══ MOVING SCAN BEAM ═══ -->
  <g clip-path="url(#scr)">
    <rect x="22" y="18" width="196" height="4" fill="#00ff41" opacity="0.05">
      <animate attributeName="y" from="18" to="184" dur="6s" repeatCount="indefinite"/>
      <animate attributeName="opacity" values="0;0.08;0.08;0" dur="6s" repeatCount="indefinite"/>
    </rect>
  </g>

  <!-- ═══ CRT FLICKER ═══ -->
  <rect x="22" y="18" width="196" height="170" fill="#00ff41" opacity="0" pointer-events="none">
    <animate attributeName="opacity" values="0;0;0;0.012;0;0;0;0;0.018;0;0;0;0.008;0;0;0;0;0.022;0;0;0;0;0.01;0;0;0;0;0.015;0;0;0;0;0;0.009;0;0;0;0;0.02;0;0" dur="0.12s" repeatCount="indefinite"/>
  </rect>

  <!-- ═══ GLITCH RGB SPLIT ═══ -->
  <g clip-path="url(#scr)" opacity="0.1">
    <rect x="22" y="56" width="196" height="1.5" fill="#ff0000">
      <animate attributeName="x" values="22;20;22;23;22" dur="0.2s" repeatCount="indefinite"/>
      <animate attributeName="opacity" values="0;0.3;0;0;0.15;0" dur="4s" repeatCount="indefinite"/>
    </rect>
    <rect x="22" y="56" width="196" height="1.5" fill="#0000ff">
      <animate attributeName="x" values="22;24;22;21;22" dur="0.2s" repeatCount="indefinite"/>
      <animate attributeName="opacity" values="0;0;0.2;0;0;0.25;0" dur="4s" begin="1s" repeatCount="indefinite"/>
    </rect>
    <rect x="22" y="96" width="196" height="1" fill="#ff0000">
      <animate attributeName="x" values="22;21;22;22.5;22" dur="0.18s" repeatCount="indefinite"/>
      <animate attributeName="opacity" values="0;0;0.15;0;0.2;0" dur="5s" begin="2s" repeatCount="indefinite"/>
    </rect>
    <rect x="22" y="96" width="196" height="1" fill="#0000ff">
      <animate attributeName="x" values="22;23;22;21.5;22" dur="0.18s" repeatCount="indefinite"/>
      <animate attributeName="opacity" values="0;0;0;0.15;0;0.2;0" dur="5s" begin="2.5s" repeatCount="indefinite"/>
    </rect>
  </g>

  <!-- ═══ VIGNETTE ═══ -->
  <path d="M 22 20 Q 22 18 24 18 L 216 18 Q 218 18 218 20 L 218 186 Q 218 188 216 188 L 24 188 Q 22 188 22 186 Z" fill="url(#scrVig)" pointer-events="none"/>

  <!-- ═══ STATUS BAR ═══ -->
  <g clip-path="url(#scr)" font-family="'JetBrains Mono',monospace" font-size="4.5" fill="#00ff41" filter="url(#fPhos)" opacity="0.4">
    <text x="28" y="180">USDC:0.01</text>
    <text x="72" y="180">|</text>
    <text x="78" y="180">x402</text>
    <text x="98" y="180">|</text>
    <text x="104" y="180">BASE:8453</text>
    <text x="148" y="180">|</text>
    <text x="154" y="180">
      <animate attributeName="opacity" values="0.3;0.7;0.3" dur="1s" repeatCount="indefinite"/>●PAID
    </text>
    <text x="186" y="180">|</text>
    <text x="192" y="180">
      <animate attributeName="opacity" values="0.3;0.7;0.3" dur="1.5s" repeatCount="indefinite"/>●
    </text>
  </g>

  <!-- ═══ MONITOR STAND ═══ -->
  <path d="M 108 194 L 132 194 L 130 202 L 110 202 Z" fill="url(#bezel)"/>
  <ellipse cx="120" cy="205" rx="24" ry="3" fill="url(#bezel)"/>
  <ellipse cx="120" cy="205" rx="24" ry="3" fill="#000" opacity="0.3"/>

  <!-- ═══ POWER LEDs ═══ -->
  <circle cx="200" cy="184" r="2.5" fill="url(#ledG)" filter="url(#fPhos)">
    <animate attributeName="opacity" values="0.6;1;0.6" dur="2s" repeatCount="indefinite"/>
  </circle>
  <text x="206" y="186" font-family="monospace" font-size="3" fill="#00ff41" opacity="0.4">ON</text>
  <circle cx="40" cy="184" r="1.8" fill="url(#ledR)" opacity="0.4">
    <animate attributeName="opacity" values="0.2;0.5;0.2" dur="4s" repeatCount="indefinite"/>
  </circle>

  <!-- ═══ KEYBOARD ═══ -->
  <g>
    <!-- Keyboard base -->
    <rect x="44" y="208" width="152" height="24" rx="3" fill="#16161a" stroke="#2a2a2e" stroke-width="0.4"/>
    <!-- Key row 1 (number row) -->
    <g fill="url(#keyG)" stroke="#333338" stroke-width="0.2">
      <rect x="48" y="211" width="6" height="4" rx="0.5"/><rect x="55" y="211" width="6" height="4" rx="0.5"/>
      <rect x="62" y="211" width="6" height="4" rx="0.5"/><rect x="69" y="211" width="6" height="4" rx="0.5"/>
      <rect x="76" y="211" width="6" height="4" rx="0.5"/><rect x="83" y="211" width="6" height="4" rx="0.5"/>
      <rect x="90" y="211" width="6" height="4" rx="0.5"/><rect x="97" y="211" width="6" height="4" rx="0.5"/>
      <rect x="104" y="211" width="6" height="4" rx="0.5"/><rect x="111" y="211" width="6" height="4" rx="0.5"/>
      <rect x="118" y="211" width="6" height="4" rx="0.5"/><rect x="125" y="211" width="6" height="4" rx="0.5"/>
      <rect x="132" y="211" width="6" height="4" rx="0.5"/><rect x="139" y="211" width="6" height="4" rx="0.5"/>
      <rect x="146" y="211" width="6" height="4" rx="0.5"/><rect x="153" y="211" width="6" height="4" rx="0.5"/>
      <rect x="160" y="211" width="6" height="4" rx="0.5"/><rect x="167" y="211" width="6" height="4" rx="0.5"/>
      <rect x="174" y="211" width="6" height="4" rx="0.5"/><rect x="181" y="211" width="9" height="4" rx="0.5"/>
    </g>
    <!-- Key row 2 (qwerty) -->
    <g fill="url(#keyG)" stroke="#333338" stroke-width="0.2">
      <rect x="48" y="217" width="6" height="4" rx="0.5"/><rect x="55" y="217" width="6" height="4" rx="0.5"/>
      <rect x="62" y="217" width="6" height="4" rx="0.5"/><rect x="69" y="217" width="6" height="4" rx="0.5"/>
      <rect x="76" y="217" width="6" height="4" rx="0.5"/><rect x="83" y="217" width="6" height="4" rx="0.5"/>
      <rect x="90" y="217" width="6" height="4" rx="0.5"/><rect x="97" y="217" width="6" height="4" rx="0.5"/>
      <rect x="104" y="217" width="6" height="4" rx="0.5"/><rect x="111" y="217" width="6" height="4" rx="0.5"/>
      <rect x="118" y="217" width="6" height="4" rx="0.5"/><rect x="125" y="217" width="6" height="4" rx="0.5"/>
      <rect x="132" y="217" width="6" height="4" rx="0.5"/><rect x="139" y="217" width="6" height="4" rx="0.5"/>
      <rect x="146" y="217" width="6" height="4" rx="0.5"/><rect x="153" y="217" width="6" height="4" rx="0.5"/>
      <rect x="160" y="217" width="6" height="4" rx="0.5"/><rect x="167" y="217" width="16" height="4" rx="0.5"/>
      <rect x="184" y="217" width="6" height="4" rx="0.5"/>
    </g>
    <!-- Key row 3 (asdf + spacebar) -->
    <g fill="url(#keyG)" stroke="#333338" stroke-width="0.2">
      <rect x="48" y="223" width="8" height="4" rx="0.5"/><rect x="57" y="223" width="8" height="4" rx="0.5"/>
      <rect x="66" y="223" width="56" height="4" rx="0.5"/>
      <rect x="124" y="223" width="8" height="4" rx="0.5"/><rect x="133" y="223" width="8" height="4" rx="0.5"/>
      <rect x="142" y="223" width="8" height="4" rx="0.5"/><rect x="151" y="223" width="8" height="4" rx="0.5"/>
      <rect x="160" y="223" width="8" height="4" rx="0.5"/><rect x="169" y="223" width="8" height="4" rx="0.5"/>
      <rect x="178" y="223" width="12" height="4" rx="0.5"/>
    </g>
    <!-- Active key glow (green) -->
    <rect x="97" y="217" width="6" height="4" rx="0.5" fill="url(#phosA)" filter="url(#fPhos)" opacity="0.4">
      <animate attributeName="opacity" values="0.15;0.5;0.15" dur="1.5s" repeatCount="indefinite"/>
    </rect>
    <!-- Spacebar glow -->
    <rect x="66" y="223" width="56" height="4" rx="0.5" fill="url(#phosA)" filter="url(#fPhos)" opacity="0.2">
      <animate attributeName="opacity" values="0.08;0.3;0.08" dur="2.5s" repeatCount="indefinite"/>
    </rect>
  </g>

  <!-- ═══ DESK SURFACE SHADOW ═══ -->
  <ellipse cx="120" cy="235" rx="80" ry="3" fill="#000" opacity="0.3"/>
</svg>